<svg width="1514" height="948" xmlns="http://www.w3.org/2000/svg" xmlns:xlink="http://www.w3.org/1999/xlink" overflow="hidden"><g transform="translate(1 1)"><path d="M189 702 189 647 254 702Z" fill="#7F7F7F" fill-rule="evenodd"/><rect x="177" y="646" width="12" height="72" fill="#7F7F7F"/><path d="M69.2383 757.764C51.6405 707.008 344.848 663.953 724.136 661.598 1103.42 659.243 1425.16 698.48 1442.76 749.236 1443.66 751.843 1443.74 754.454 1442.98 757.061Z" stroke="#000000" stroke-width="3.33333" stroke-miterlimit="8" fill="#FFFFFF" fill-rule="evenodd"/><path d="M755.5 791C752.462 791 750 788.538 750 785.5L750 649.5C750 646.463 752.462 644 755.5 644L777.5 644C780.537 644 783 646.463 783 649.5L783 785.5C783 788.538 780.537 791 777.5 791Z" fill="#767171" fill-rule="evenodd"/><path d="M120.435 709.5 120.435 709.519 144.535 710.273C195.875 713.721 206.752 727.57 251.208 728.27 302.015 729.07 358.054 714.518 424.682 714.299 491.311 714.08 588.657 727.567 650.979 726.953 713.301 726.34 741.018 711.426 798.613 710.619 856.208 709.812 936.869 722.203 996.55 722.112 1056.23 722.022 1091.19 709.376 1156.7 710.077 1222.2 710.777 1310.28 726.411 1389.59 726.315 1419.33 726.279 1448.55 723.894 1478.1 720.931L1512.5 717.345 1512.5 945.5 76.0999 945.5 0.500053 945.5 0.500053 717.345 10.7774 716.274C25.825 714.725 41.0625 713.253 56.5966 712.08L76.0999 710.913 76.0999 710.905 87.9572 710.195C98.609 709.744 109.424 709.49 120.435 709.5Z" stroke="#172C51" stroke-width="1.33333" stroke-miterlimit="8" fill="#4472C4" fill-rule="evenodd"/><path d="M783.897 632.135C789.38 629.929 800.372 628.227 803.842 632.782 807.311 637.337 796.717 640.449 792.246 643.365 787.774 646.282 781.339 651.854 778.345 652.992 774.767 648.78 773.346 649.254 770.942 646.019 768.537 642.783 778.413 634.341 783.897 632.135Z" fill="#767171" fill-rule="evenodd"/><path d="M746.732 619.597C748.901 617.032 752.74 616.71 755.306 618.879L782.341 641.737C784.907 643.906 785.229 647.745 783.059 650.311L767.348 668.894C765.179 671.46 761.34 671.781 758.774 669.612L731.739 646.754C729.173 644.585 728.851 640.746 731.021 638.18Z" fill="#767171" fill-rule="evenodd"/><path d="M745.5 622.5 756.839 632.232" stroke="#000000" stroke-width="0.666667" stroke-miterlimit="8" fill="none" fill-rule="evenodd"/><path d="M739.5 629.5 750.839 639.232" stroke="#000000" stroke-width="0.666667" stroke-miterlimit="8" fill="none" fill-rule="evenodd"/><path d="M734.5 635.5 745.839 645.232" stroke="#000000" stroke-width="0.666667" stroke-miterlimit="8" fill="none" fill-rule="evenodd"/><rect x="0" y="0" width="1512" height="945" fill="#4472C4" fill-opacity="0"/></g></svg>