<svg width="30002" height="752" xmlns="http://www.w3.org/2000/svg" xmlns:xlink="http://www.w3.org/1999/xlink" overflow="hidden"><g transform="translate(1 -195)"><path d="M650.034 617.628C640.939 562.053 654.916 513.507 681.254 509.197 707.591 504.887 736.314 546.445 745.409 602.02 754.504 657.595 740.526 706.141 714.189 710.451 687.852 714.761 659.128 673.203 650.034 617.628Z" fill="#767171" fill-rule="evenodd"/><path d="M642.904 667.23C624.473 635.805 617.468 605.674 627.258 599.931 637.049 594.189 659.928 615.009 678.36 646.435 696.792 677.861 703.797 707.992 694.006 713.734 684.215 719.477 661.336 698.656 642.904 667.23Z" fill="#767171" fill-rule="evenodd"/><path d="M589.745 657.854C601.153 623.254 619.14 598.087 629.92 601.641 640.7 605.196 640.19 636.126 628.781 670.726 617.373 705.326 599.386 730.493 588.606 726.939 577.826 723.384 578.336 692.454 589.745 657.854Z" fill="#767171" fill-rule="evenodd"/><path d="M581 703.5C581 696.044 586.596 690 593.5 690 600.404 690 606 696.044 606 703.5 606 710.956 600.404 717 593.5 717 586.596 717 581 710.956 581 703.5Z" fill="#767171" fill-rule="evenodd"/><path d="M622 475.5C622 447.057 644.162 424 671.5 424 698.838 424 721 447.057 721 475.5 721 503.943 698.838 527 671.5 527 644.162 527 622 503.943 622 475.5Z" fill="#767171" fill-rule="evenodd"/><path d="M1431.76 682.27C1449.27 732.474 1158.45 775.067 782.201 777.403 405.949 779.739 86.745 740.934 69.2374 690.73 68.3356 688.144 68.2612 685.554 69.0144 682.967Z" stroke="#000000" stroke-width="3.33333" stroke-miterlimit="8" fill="#FFFFFF" fill-rule="evenodd"/><path d="M566.207 585.091 1295.16 807.953 1292.24 817.493 563.29 594.63Z" fill-rule="evenodd"/><path d="M545.597 578.04C544.855 575.169 546.582 572.24 549.453 571.498L679.414 537.925C682.285 537.183 685.214 538.909 685.956 541.78L691.327 562.574C692.069 565.445 690.343 568.374 687.472 569.116L557.51 602.689C554.639 603.431 551.711 601.705 550.969 598.833Z" fill="#767171" fill-rule="evenodd"/><path d="M44.4832 711.5 44.4832 711.519 68.3923 712.266C119.324 715.685 130.115 729.417 174.219 730.111 224.623 730.904 280.216 716.476 346.316 716.258 412.416 716.041 508.99 729.414 570.817 728.806 632.644 728.197 660.141 713.41 717.279 712.61 774.417 711.81 854.438 724.095 913.645 724.005 972.852 723.916 1007.54 711.377 1072.52 712.072 1137.51 712.766 1224.88 728.268 1303.56 728.172 1362.58 728.101 1419.51 718.713 1481.15 714.058L1500.5 712.901 1500.5 945.5 0.500053 945.5 0.500053 712.893 12.2634 712.19C22.8306 711.742 33.56 711.49 44.4832 711.5Z" stroke="#172C51" stroke-width="1.33333" stroke-miterlimit="8" fill="#4472C4" fill-rule="evenodd"/><path d="M2162.6 618.211C2153.51 562.641 2167.49 514.099 2193.82 509.79 2220.16 505.48 2248.88 547.034 2257.97 602.604 2267.06 658.174 2253.09 706.716 2226.75 711.026 2200.42 715.335 2171.7 673.781 2162.6 618.211Z" fill="#767171" fill-rule="evenodd"/><path d="M2160.87 673.178C2138.5 644.425 2127.63 615.467 2136.59 608.498 2145.54 601.529 2170.94 619.188 2193.31 647.94 2215.68 676.692 2226.55 705.65 2217.59 712.62 2208.63 719.589 2183.24 701.93 2160.87 673.178Z" fill="#767171" fill-rule="evenodd"/><path d="M2100.38 654.853C2118.13 623.043 2140.56 601.741 2150.47 607.272 2160.38 612.804 2154.02 643.074 2136.26 674.884 2118.51 706.694 2096.08 727.997 2086.17 722.465 2076.26 716.934 2082.62 686.663 2100.38 654.853Z" fill="#767171" fill-rule="evenodd"/><path d="M2081 704C2081 696.268 2086.6 690 2093.5 690 2100.4 690 2106 696.268 2106 704 2106 711.732 2100.4 718 2093.5 718 2086.6 718 2081 711.732 2081 704Z" fill="#767171" fill-rule="evenodd"/><path d="M2134 474.5C2134 446.057 2156.16 423 2183.5 423 2210.84 423 2233 446.057 2233 474.5 2233 502.943 2210.84 526 2183.5 526 2156.16 526 2134 502.943 2134 474.5Z" fill="#767171" fill-rule="evenodd"/><path d="M2931.77 682.77C2949.18 733.251 2658.28 776.067 2282.03 778.403 1905.77 780.739 1586.64 741.711 1569.23 691.23 1568.34 688.644 1568.26 686.054 1569.01 683.467Z" stroke="#000000" stroke-width="3.33333" stroke-miterlimit="8" fill="#FFFFFF" fill-rule="evenodd"/><path d="M2070.57 581.996 2791.23 830.14 2787.98 839.571 2067.32 591.427Z" fill-rule="evenodd"/><path d="M2056.23 577.052C2055.49 574.182 2057.22 571.253 2060.09 570.511L2190.04 536.941C2192.91 536.199 2195.84 537.925 2196.58 540.796L2201.95 561.588C2202.69 564.459 2200.97 567.387 2198.1 568.129L2068.15 601.699C2065.27 602.441 2062.35 600.715 2061.6 597.844Z" fill="#767171" fill-rule="evenodd"/><path d="M2969.48 711.5 2969.48 711.519 2993.39 712.266 3000.5 712.97 3000.5 945.5 2925.5 945.5 1500.5 945.5 1500.5 712.97 1510.75 713.986C1547.54 718.914 1560.63 729.504 1599.22 730.111 1649.62 730.904 1705.22 716.476 1771.32 716.258 1837.42 716.041 1933.99 729.414 1995.82 728.806 2057.64 728.197 2085.14 713.41 2142.28 712.61 2199.42 711.81 2279.44 724.095 2338.64 724.005 2397.85 723.916 2432.54 711.377 2497.52 712.072 2562.51 712.766 2649.88 728.268 2728.56 728.172 2787.58 728.101 2844.51 718.713 2906.15 714.058L2925.5 712.901 2925.5 712.893 2937.26 712.19C2947.83 711.742 2958.56 711.49 2969.48 711.5Z" stroke="#172C51" stroke-width="1.33333" stroke-miterlimit="8" fill="#4472C4" fill-rule="evenodd"/><path d="M3678.74 618.717C3669.65 563.147 3683.62 514.605 3709.96 510.295 3736.29 505.986 3765.01 547.54 3774.11 603.11 3783.2 658.68 3769.23 707.222 3742.89 711.532 3716.56 715.841 3687.84 674.287 3678.74 618.717Z" fill="#767171" fill-rule="evenodd"/><path d="M3676.38 675.136C3652.71 647.448 3640.51 619.024 3649.14 611.648 3657.76 604.272 3683.95 620.738 3707.62 648.426 3731.3 676.113 3743.5 704.537 3734.87 711.913 3726.24 719.289 3700.06 702.823 3676.38 675.136Z" fill="#767171" fill-rule="evenodd"/><path d="M3602.93 658.663C3623.84 628.835 3648.33 609.936 3657.62 616.452 3666.91 622.967 3657.49 652.43 3636.58 682.258 3615.67 712.086 3591.18 730.984 3581.89 724.469 3572.59 717.953 3582.01 688.491 3602.93 658.663Z" fill="#767171" fill-rule="evenodd"/><path d="M3581 704C3581 696.268 3586.6 690 3593.5 690 3600.4 690 3606 696.268 3606 704 3606 711.732 3600.4 718 3593.5 718 3586.6 718 3581 711.732 3581 704Z" fill="#767171" fill-rule="evenodd"/><path d="M3655 473.5C3655 445.057 3677.16 422 3704.5 422 3731.84 422 3754 445.057 3754 473.5 3754 501.943 3731.84 525 3704.5 525 3677.16 525 3655 501.943 3655 473.5Z" fill="#767171" fill-rule="evenodd"/><path d="M4431.76 682.27C4449.27 732.474 4158.45 775.067 3782.2 777.403 3405.95 779.739 3086.74 740.934 3069.24 690.73 3068.34 688.144 3068.26 685.554 3069.01 682.967Z" stroke="#000000" stroke-width="3.33333" stroke-miterlimit="8" fill="#FFFFFF" fill-rule="evenodd"/><path d="M3590.57 583.78 4308.55 859.386 4304.98 868.697 3587 593.091Z" fill-rule="evenodd"/><path d="M3573.15 575.537C3572.44 572.66 3574.19 569.746 3577.06 569.029L3707.29 536.559C3710.17 535.841 3713.08 537.592 3713.8 540.469L3719 561.306C3719.71 564.183 3717.96 567.096 3715.09 567.814L3584.86 600.284C3581.98 601.001 3579.07 599.25 3578.35 596.373Z" fill="#767171" fill-rule="evenodd"/><path d="M4394.48 711.5 4394.48 711.519 4418.39 712.266C4456.59 714.831 4472.21 723.196 4496.24 727.511L4500.5 728.099 4500.5 945.5 4350.5 945.5 3000.5 945.5 3000.5 728.099 3009.1 729.285C3013.71 729.734 3018.71 730.024 3024.22 730.111 3074.62 730.904 3130.22 716.476 3196.32 716.258 3262.42 716.041 3358.99 729.414 3420.82 728.806 3482.64 728.197 3510.14 713.41 3567.28 712.61 3624.42 711.81 3704.44 724.095 3763.64 724.005 3822.85 723.916 3857.54 711.377 3922.52 712.072 3987.51 712.766 4074.88 728.268 4153.56 728.172 4212.58 728.101 4269.51 718.713 4331.15 714.058L4350.5 712.901 4350.5 712.893 4362.26 712.19C4372.83 711.742 4383.56 711.49 4394.48 711.5Z" stroke="#172C51" stroke-width="1.33333" stroke-miterlimit="8" fill="#4472C4" fill-rule="evenodd"/><path d="M5193.83 618.717C5184.74 563.147 5198.71 514.605 5225.05 510.295 5251.38 505.986 5280.1 547.54 5289.2 603.11 5298.29 658.68 5284.32 707.222 5257.98 711.532 5231.65 715.841 5202.92 674.287 5193.83 618.717Z" fill="#767171" fill-rule="evenodd"/><path d="M5192.23 679.216C5164.29 655.834 5147.55 629.824 5154.84 621.121 5162.12 612.417 5190.67 624.317 5218.61 647.699 5246.54 671.081 5263.28 697.091 5256 705.794 5248.71 714.497 5220.16 702.598 5192.23 679.216Z" fill="#767171" fill-rule="evenodd"/><path d="M5110.47 655.882C5133.34 627.527 5159.04 610.317 5167.87 617.442 5176.71 624.567 5165.33 653.33 5142.46 681.685 5119.59 710.04 5093.88 727.25 5085.05 720.125 5076.22 713 5087.59 684.237 5110.47 655.882Z" fill="#767171" fill-rule="evenodd"/><path d="M5081 704C5081 696.268 5086.6 690 5093.5 690 5100.4 690 5106 696.268 5106 704 5106 711.732 5100.4 718 5093.5 718 5086.6 718 5081 711.732 5081 704Z" fill="#767171" fill-rule="evenodd"/><path d="M5168 473.5C5168 445.057 5190.16 422 5217.5 422 5244.84 422 5267 445.057 5267 473.5 5267 501.943 5244.84 525 5217.5 525 5190.16 525 5168 501.943 5168 473.5Z" fill="#767171" fill-rule="evenodd"/><path d="M5931.76 682.27C5949.27 732.474 5658.45 775.067 5282.2 777.403 4905.95 779.739 4586.75 740.934 4569.24 690.73 4568.34 688.144 4568.26 685.554 4569.01 682.967Z" stroke="#000000" stroke-width="3.33333" stroke-miterlimit="8" fill="#FFFFFF" fill-rule="evenodd"/><path d="M5100.79 583.136 5808.72 883.632 5804.82 892.813 5096.9 592.318Z" fill-rule="evenodd"/><path d="M5090.06 575.132C5089.29 572.268 5090.99 569.324 5093.85 568.556L5223.49 533.819C5226.36 533.051 5229.3 534.751 5230.07 537.615L5235.63 558.358C5236.4 561.222 5234.7 564.166 5231.83 564.933L5102.19 599.671C5099.32 600.438 5096.38 598.738 5095.61 595.874Z" fill="#767171" fill-rule="evenodd"/><path d="M5819.48 711.5 5819.48 711.519 5843.39 712.266C5894.32 715.685 5905.12 729.417 5949.22 730.111 5961.82 730.309 5974.74 729.556 5988.08 728.311L6000.5 726.883 6000.5 945.5 5775.5 945.5 4500.5 945.5 4500.5 726.883 4529.38 723.563C4557.84 720.028 4588.27 716.367 4621.32 716.258 4687.42 716.041 4783.99 729.414 4845.82 728.806 4907.64 728.197 4935.14 713.41 4992.28 712.61 5049.42 711.81 5129.44 724.095 5188.64 724.005 5247.85 723.916 5282.54 711.377 5347.52 712.072 5412.51 712.766 5499.88 728.268 5578.56 728.172 5637.58 728.101 5694.51 718.713 5756.15 714.058L5775.5 712.901 5775.5 712.893 5787.26 712.19C5797.83 711.742 5808.56 711.49 5819.48 711.5Z" stroke="#172C51" stroke-width="1.33333" stroke-miterlimit="8" fill="#4472C4" fill-rule="evenodd"/><path d="M6713.93 611.579C6710.18 555.395 6728.72 508.407 6755.35 506.629 6781.97 504.85 6806.6 548.954 6810.35 605.138 6814.1 661.322 6795.56 708.309 6768.94 710.088 6742.31 711.866 6717.68 667.762 6713.93 611.579Z" fill="#767171" fill-rule="evenodd"/><path d="M6711.09 689.298C6680.53 669.472 6660.76 645.681 6666.94 636.16 6673.12 626.638 6702.9 634.992 6733.46 654.818 6764.02 674.644 6783.79 698.435 6777.61 707.957 6771.44 717.478 6741.65 709.125 6711.09 689.298Z" fill="#767171" fill-rule="evenodd"/><path d="M6624.35 656.361C6653.93 635.096 6683.28 625.328 6689.9 634.543 6696.53 643.758 6677.92 668.468 6648.34 689.733 6618.76 710.998 6589.41 720.766 6582.79 711.551 6576.16 702.335 6594.77 677.626 6624.35 656.361Z" fill="#767171" fill-rule="evenodd"/><path d="M6581 704C6581 696.268 6586.6 690 6593.5 690 6600.4 690 6606 696.268 6606 704 6606 711.732 6600.4 718 6593.5 718 6586.6 718 6581 711.732 6581 704Z" fill="#767171" fill-rule="evenodd"/><path d="M6694 473.5C6694 445.057 6716.16 422 6743.5 422 6770.84 422 6793 445.057 6793 473.5 6793 501.943 6770.84 525 6743.5 525 6716.16 525 6694 501.943 6694 473.5Z" fill="#767171" fill-rule="evenodd"/><path d="M7431.76 682.27C7449.27 732.474 7158.45 775.067 6782.2 777.403 6405.95 779.739 6086.75 740.934 6069.24 690.73 6068.34 688.144 6068.26 685.554 6069.01 682.967Z" stroke="#000000" stroke-width="3.33333" stroke-miterlimit="8" fill="#FFFFFF" fill-rule="evenodd"/><path d="M6626.2 582.086 7062.08 833.741 7057.09 842.379 6621.21 590.723Z" stroke="#000000" stroke-width="1.33333" stroke-miterlimit="8" fill-rule="evenodd"/><path d="M6614.6 571.89C6613.87 569.014 6615.62 566.097 6618.49 565.373L6748.65 532.621C6751.53 531.897 6754.44 533.642 6755.17 536.517L6760.41 557.342C6761.13 560.218 6759.39 563.135 6756.51 563.859L6626.35 596.611C6623.48 597.335 6620.56 595.59 6619.84 592.715Z" fill="#767171" fill-rule="evenodd"/><path d="M7244.48 711.5 7244.48 711.519 7268.39 712.266C7319.32 715.685 7330.12 729.417 7374.22 730.111 7412.02 730.705 7452.74 722.738 7498.63 718.626L7500.5 718.492 7500.5 945.5 7200.5 945.5 6000.5 945.5 6000.5 718.492 6022.01 716.949C6029.96 716.535 6038.05 716.285 6046.32 716.258 6112.42 716.041 6208.99 729.414 6270.82 728.806 6332.64 728.197 6360.14 713.41 6417.28 712.61 6474.42 711.81 6554.44 724.095 6613.64 724.005 6672.85 723.916 6707.54 711.377 6772.52 712.072 6837.51 712.766 6924.88 728.268 7003.56 728.172 7062.58 728.101 7119.51 718.713 7181.15 714.058L7200.5 712.901 7200.5 712.893 7212.26 712.19C7222.83 711.742 7233.56 711.49 7244.48 711.5Z" stroke="#172C51" stroke-width="1.33333" stroke-miterlimit="8" fill="#4472C4" fill-rule="evenodd"/><path d="M8234 605C8234 548.667 8255.49 503 8282 503 8308.51 503 8330 548.667 8330 605 8330 661.333 8308.51 707 8282 707 8255.49 707 8234 661.333 8234 605Z" fill="#767171" fill-rule="evenodd"/><path d="M8225.83 700.563C8191.88 687.348 8167.7 668.061 8171.81 657.484 8175.93 646.908 8206.79 649.047 8240.74 662.263 8274.68 675.479 8298.87 694.766 8294.75 705.342 8290.63 715.919 8259.77 713.779 8225.83 700.563Z" fill="#767171" fill-rule="evenodd"/><path d="M8131.39 666.24C8163.95 649.905 8194.48 644.888 8199.57 655.032 8204.65 665.177 8182.38 686.643 8149.82 702.977 8117.26 719.311 8086.74 724.329 8081.65 714.184 8076.56 704.04 8098.83 682.574 8131.39 666.24Z" fill="#767171" fill-rule="evenodd"/><path d="M8081 704C8081 696.268 8086.6 690 8093.5 690 8100.4 690 8106 696.268 8106 704 8106 711.732 8100.4 718 8093.5 718 8086.6 718 8081 711.732 8081 704Z" fill="#767171" fill-rule="evenodd"/><path d="M8224 468.5C8224 440.057 8246.16 417 8273.5 417 8300.84 417 8323 440.057 8323 468.5 8323 496.943 8300.84 520 8273.5 520 8246.16 520 8224 496.943 8224 468.5Z" fill="#767171" fill-rule="evenodd"/><path d="M8931.76 682.27C8949.27 732.474 8658.45 775.067 8282.2 777.403 7905.95 779.739 7586.75 740.934 7569.24 690.73 7568.34 688.144 7568.26 685.554 7569.01 682.967Z" stroke="#000000" stroke-width="3.33333" stroke-miterlimit="8" fill="#FFFFFF" fill-rule="evenodd"/><path d="M8148.93 578.076 8512.9 883.48 8506.49 891.121 8142.52 585.716Z" stroke="#000000" stroke-width="1.33333" stroke-miterlimit="8" fill-rule="evenodd"/><path d="M8131.29 572.141C8130.47 569.291 8132.12 566.318 8134.97 565.501L8263.99 528.506C8266.84 527.688 8269.81 529.336 8270.63 532.187L8276.55 552.829C8277.36 555.679 8275.72 558.652 8272.87 559.47L8143.85 596.465C8141 597.282 8138.03 595.634 8137.21 592.784Z" fill="#767171" fill-rule="evenodd"/><path d="M8669.48 711.5 8669.48 711.519 8693.39 712.266C8744.32 715.685 8755.12 729.417 8799.22 730.111 8849.62 730.904 8905.22 716.476 8971.32 716.258 8979.58 716.231 8988.32 716.416 8997.4 716.76L9000.5 716.919 9000.5 945.5 8625.5 945.5 7500.5 945.5 7500.5 716.919 7525.59 718.213C7583.53 721.853 7649.45 729.262 7695.82 728.806 7757.64 728.197 7785.14 713.41 7842.28 712.61 7899.42 711.81 7979.44 724.095 8038.64 724.005 8097.85 723.916 8132.54 711.377 8197.52 712.072 8262.51 712.766 8349.88 728.268 8428.56 728.172 8487.58 728.101 8544.51 718.713 8606.15 714.058L8625.5 712.901 8625.5 712.893 8637.26 712.19C8647.83 711.742 8658.56 711.49 8669.48 711.5Z" stroke="#172C51" stroke-width="1.33333" stroke-miterlimit="8" fill="#4472C4" fill-rule="evenodd"/><path d="M9751.04 600.652C9756.83 544.641 9783.04 501.461 9809.58 504.205 9836.13 506.95 9852.95 554.58 9847.16 610.59 9841.37 666.601 9815.16 709.781 9788.61 707.037 9762.07 704.292 9745.25 656.662 9751.04 600.652Z" fill="#767171" fill-rule="evenodd"/><path d="M9736.39 706.982C9700.23 702.575 9672.02 689.869 9673.4 678.603 9674.77 667.337 9705.2 661.776 9741.36 666.183 9777.52 670.591 9805.72 683.296 9804.35 694.563 9802.98 705.829 9772.55 711.389 9736.39 706.982Z" fill="#767171" fill-rule="evenodd"/><path d="M9637.65 673.256C9672.88 663.996 9703.78 665.387 9706.67 676.364 9709.55 687.341 9683.33 703.746 9648.1 713.006 9612.86 722.267 9581.96 720.875 9579.08 709.899 9576.19 698.922 9602.42 682.516 9637.65 673.256Z" fill="#767171" fill-rule="evenodd"/><path d="M9581 704C9581 696.268 9586.6 690 9593.5 690 9600.4 690 9606 696.268 9606 704 9606 711.732 9600.4 718 9593.5 718 9586.6 718 9581 711.732 9581 704Z" fill="#767171" fill-rule="evenodd"/><path d="M9752 468.5C9752 440.057 9774.16 417 9801.5 417 9828.84 417 9851 440.057 9851 468.5 9851 496.943 9828.84 520 9801.5 520 9774.16 520 9752 496.943 9752 468.5Z" fill="#767171" fill-rule="evenodd"/><path d="M10431.8 682.27C10449.3 732.474 10158.5 775.067 9782.2 777.403 9405.95 779.739 9086.75 740.934 9069.24 690.73 9068.34 688.144 9068.26 685.554 9069.01 682.967Z" stroke="#000000" stroke-width="3.33333" stroke-miterlimit="8" fill="#FFFFFF" fill-rule="evenodd"/><path d="M9670.1 575.49 9898.74 902.022 9890.57 907.743 9661.93 581.211Z" stroke="#000000" stroke-width="1.33333" stroke-miterlimit="8" fill-rule="evenodd"/><path d="M9651.42 569.549C9650.75 566.66 9652.55 563.777 9655.44 563.11L9786.22 532.918C9789.11 532.251 9791.99 534.053 9792.66 536.942L9797.49 557.866C9798.15 560.755 9796.35 563.638 9793.46 564.305L9662.69 594.497C9659.8 595.164 9656.91 593.362 9656.25 590.473Z" fill="#767171" fill-rule="evenodd"/><path d="M10094.5 711.5 10094.5 711.519 10118.4 712.266C10169.3 715.685 10180.1 729.417 10224.2 730.111 10274.6 730.904 10330.2 716.476 10396.3 716.258 10412.8 716.204 10431.3 716.999 10450.6 718.213L10500.5 721.954 10500.5 945.5 10050.5 945.5 9000.5 945.5 9000.5 721.954 9010.17 722.678C9050.3 725.918 9089.9 729.11 9120.82 728.806 9182.64 728.197 9210.14 713.41 9267.28 712.61 9324.42 711.81 9404.44 724.095 9463.64 724.005 9522.85 723.916 9557.54 711.377 9622.52 712.072 9687.51 712.766 9774.88 728.268 9853.56 728.172 9912.58 728.101 9969.51 718.713 10031.2 714.058L10050.5 712.901 10050.5 712.893 10062.3 712.19C10072.8 711.742 10083.6 711.49 10094.5 711.5Z" stroke="#172C51" stroke-width="1.33333" stroke-miterlimit="8" fill="#4472C4" fill-rule="evenodd"/><path d="M11260 595.205C11273.4 540.497 11305.2 501.268 11331.1 507.586 11357.1 513.903 11367.3 563.374 11353.9 618.083 11340.6 672.791 11308.8 712.019 11282.9 705.702 11256.9 699.384 11246.7 649.913 11260 595.205Z" fill="#767171" fill-rule="evenodd"/><path d="M11240 714C11203.5 714 11174 704.822 11174 693.5 11174 682.178 11203.5 673 11240 673 11276.5 673 11306 682.178 11306 693.5 11306 704.822 11276.5 714 11240 714Z" fill="#767171" fill-rule="evenodd"/><path d="M11141.1 675.988C11177.4 673.319 11207.6 680.331 11208.4 691.65 11209.2 702.969 11180.4 714.309 11144.1 716.978 11107.8 719.647 11077.7 712.634 11076.8 701.315 11076 689.996 11104.8 678.657 11141.1 675.988Z" fill="#767171" fill-rule="evenodd"/><path d="M11081 704C11081 696.268 11086.6 690 11093.5 690 11100.4 690 11106 696.268 11106 704 11106 711.732 11100.4 718 11093.5 718 11086.6 718 11081 711.732 11081 704Z" fill="#767171" fill-rule="evenodd"/><path d="M11272 471.5C11272 443.057 11294.2 420 11321.5 420 11348.8 420 11371 443.057 11371 471.5 11371 499.943 11348.8 523 11321.5 523 11294.2 523 11272 499.943 11272 471.5Z" fill="#767171" fill-rule="evenodd"/><path d="M11931.8 682.27C11949.3 732.474 11658.5 775.067 11282.2 777.403 10905.9 779.739 10586.7 740.934 10569.2 690.73 10568.3 688.144 10568.3 685.554 10569 682.967Z" stroke="#000000" stroke-width="3.33333" stroke-miterlimit="8" fill="#FFFFFF" fill-rule="evenodd"/><path d="M11192.7 572.234 11295.9 890.075 11286.5 893.157 11183.2 575.316Z" stroke="#000000" stroke-width="1.33333" stroke-miterlimit="8" fill-rule="evenodd"/><path d="M11179.7 570.779C11179 567.914 11180.7 564.972 11183.5 564.209L11313.2 529.634C11316.1 528.871 11319 530.574 11319.8 533.439L11325.3 554.188C11326.1 557.053 11324.4 559.995 11321.5 560.759L11191.8 595.333C11189 596.097 11186 594.394 11185.2 591.529Z" fill="#767171" fill-rule="evenodd"/><path d="M11519.5 711.5 11519.5 711.519 11543.4 712.266C11594.3 715.685 11605.1 729.417 11649.2 730.111 11699.6 730.904 11755.2 716.476 11821.3 716.258 11870.9 716.095 11937.6 723.577 11994 727.071L12000.5 727.399 12000.5 945.5 11475.5 945.5 10500.5 945.5 10500.5 727.399 10521.1 728.432C10529.8 728.739 10538.1 728.882 10545.8 728.806 10607.6 728.197 10635.1 713.41 10692.3 712.61 10749.4 711.81 10829.4 724.095 10888.6 724.005 10947.9 723.916 10982.5 711.377 11047.5 712.072 11112.5 712.766 11199.9 728.268 11278.6 728.172 11337.6 728.101 11394.5 718.713 11456.2 714.058L11475.5 712.901 11475.5 712.893 11487.3 712.19C11497.8 711.742 11508.6 711.49 11519.5 711.5Z" stroke="#172C51" stroke-width="1.33333" stroke-miterlimit="8" fill="#4472C4" fill-rule="evenodd"/><path d="M12765.5 592.639C12782.7 539.041 12817.3 502.23 12842.7 510.419 12868.1 518.608 12874.7 568.695 12857.4 622.293 12840.2 675.891 12805.6 712.702 12780.2 704.513 12754.8 696.324 12748.2 646.236 12765.5 592.639Z" fill="#767171" fill-rule="evenodd"/><path d="M12740.5 714C12704.3 714 12675 704.822 12675 693.5 12675 682.178 12704.3 673 12740.5 673 12776.7 673 12806 682.178 12806 693.5 12806 704.822 12776.7 714 12740.5 714Z" fill="#767171" fill-rule="evenodd"/><path d="M12641.3 675.964C12677.6 673.295 12707.8 680.308 12708.6 691.628 12709.4 702.948 12680.6 714.289 12644.3 716.958 12608 719.627 12577.8 712.614 12577 701.294 12576.2 689.974 12605 678.633 12641.3 675.964Z" fill="#767171" fill-rule="evenodd"/><path d="M12581 704C12581 696.268 12586.6 690 12593.5 690 12600.4 690 12606 696.268 12606 704 12606 711.732 12600.4 718 12593.5 718 12586.6 718 12581 711.732 12581 704Z" fill="#767171" fill-rule="evenodd"/><path d="M12754.5 561.438C12753.4 558.687 12754.7 555.559 12757.5 554.453L12812.6 532.285C12815.3 531.179 12818.5 532.512 12819.6 535.263L12827.6 555.188C12828.7 557.939 12827.4 561.067 12824.6 562.173L12769.5 584.341C12766.7 585.447 12763.6 584.114 12762.5 581.363Z" fill="#767171" fill-rule="evenodd"/><path d="M12780 471.5C12780 443.057 12802.2 420 12829.5 420 12856.8 420 12879 443.057 12879 471.5 12879 499.943 12856.8 523 12829.5 523 12802.2 523 12780 499.943 12780 471.5Z" fill="#767171" fill-rule="evenodd"/><path d="M13431.8 682.27C13449.3 732.474 13158.5 775.067 12782.2 777.403 12405.9 779.739 12086.7 740.934 12069.2 690.73 12068.3 688.144 12068.3 685.554 12069 682.967Z" stroke="#000000" stroke-width="3.33333" stroke-miterlimit="8" fill="#FFFFFF" fill-rule="evenodd"/><path d="M12711 576.425 12694.7 886.068 12684.8 885.546 12701 575.903Z" stroke="#000000" stroke-width="1.33333" stroke-miterlimit="8" fill-rule="evenodd"/><path d="M12691.6 571.928C12691.1 569.008 12693 566.223 12696 565.708L12754.5 555.392C12757.4 554.877 12760.2 556.827 12760.7 559.747L12764.4 580.897C12764.9 583.818 12763 586.603 12760.1 587.118L12701.6 597.434C12698.6 597.948 12695.9 595.999 12695.3 593.078Z" fill="#767171" fill-rule="evenodd"/><path d="M12944.5 711.5 12944.5 711.519 12968.4 712.266C13019.3 715.685 13030.1 729.417 13074.2 730.111 13124.6 730.904 13180.2 716.476 13246.3 716.258 13312.4 716.041 13409 729.414 13470.8 728.806 13478.5 728.729 13485.7 728.432 13492.5 727.968L13500.5 727.206 13500.5 945.5 12900.5 945.5 12000.5 945.5 12000.5 727.206 12011.8 726.131C12048.2 721.678 12074.4 713.21 12117.3 712.61 12174.4 711.81 12254.4 724.095 12313.6 724.005 12372.9 723.916 12407.5 711.377 12472.5 712.072 12537.5 712.766 12624.9 728.268 12703.6 728.172 12762.6 728.101 12819.5 718.713 12881.2 714.058L12900.5 712.901 12900.5 712.893 12912.3 712.19C12922.8 711.742 12933.6 711.49 12944.5 711.5Z" stroke="#172C51" stroke-width="1.33333" stroke-miterlimit="8" fill="#4472C4" fill-rule="evenodd"/><path d="M14269.2 593.426C14287.3 540.106 14322.5 503.835 14347.8 512.413 14373 520.991 14378.8 571.17 14360.7 624.49 14342.6 677.811 14307.5 714.081 14282.2 705.503 14256.9 696.925 14251.1 646.746 14269.2 593.426Z" fill="#767171" fill-rule="evenodd"/><path d="M14240 715C14203.5 715 14174 705.822 14174 694.5 14174 683.178 14203.5 674 14240 674 14276.5 674 14306 683.178 14306 694.5 14306 705.822 14276.5 715 14240 715Z" fill="#767171" fill-rule="evenodd"/><path d="M14141.2 677.202C14177.6 674.533 14207.7 681.545 14208.5 692.864 14209.4 704.183 14180.6 715.523 14144.2 718.192 14107.9 720.86 14077.8 713.848 14077 702.529 14076.1 691.21 14104.9 679.87 14141.2 677.202Z" fill="#767171" fill-rule="evenodd"/><path d="M14081 705C14081 697.268 14086.6 691 14093.5 691 14100.4 691 14106 697.268 14106 705 14106 712.732 14100.4 719 14093.5 719 14086.6 719 14081 712.732 14081 705Z" fill="#767171" fill-rule="evenodd"/><path d="M14288 572.869C14286.4 570.373 14287.2 567.052 14289.7 565.451L14339.7 533.376C14342.2 531.775 14345.5 532.5 14347.1 534.996L14358.7 553.071C14360.3 555.566 14359.6 558.887 14357.1 560.488L14307.1 592.564C14304.6 594.165 14301.2 593.439 14299.6 590.944Z" fill="#767171" fill-rule="evenodd"/><path d="M14286 472.5C14286 444.057 14308.2 421 14335.5 421 14362.8 421 14385 444.057 14385 472.5 14385 500.943 14362.8 524 14335.5 524 14308.2 524 14286 500.943 14286 472.5Z" fill="#767171" fill-rule="evenodd"/><path d="M14931.8 681.77C14949.2 732.251 14658.3 775.067 14282 777.403 13905.8 779.739 13586.6 740.711 13569.2 690.23 13568.3 687.644 13568.3 685.054 13569 682.467Z" stroke="#000000" stroke-width="3.33333" stroke-miterlimit="8" fill="#FFFFFF" fill-rule="evenodd"/><path d="M14248.7 591.38 13984.8 866.079 13977.7 859.169 14241.5 584.47Z" stroke="#000000" stroke-width="1.33333" stroke-miterlimit="8" fill-rule="evenodd"/><path d="M14232.1 574.866C14231.8 571.919 14233.9 569.261 14236.8 568.927L14295.8 562.249C14298.8 561.916 14301.5 564.034 14301.8 566.98L14304.2 588.318C14304.5 591.265 14302.4 593.923 14299.5 594.257L14240.4 600.935C14237.5 601.268 14234.8 599.15 14234.5 596.204Z" fill="#767171" fill-rule="evenodd"/><path d="M14369.5 711.5 14369.5 711.519 14393.4 712.266C14444.3 715.685 14455.1 729.417 14499.2 730.111 14549.6 730.904 14605.2 716.476 14671.3 716.258 14737.4 716.041 14834 729.414 14895.8 728.806 14926.7 728.501 14949.1 724.653 14970.8 720.78L15000.5 715.958 15000.5 945.5 14325.5 945.5 13500.5 945.5 13500.5 715.958 13504 715.392C13515.6 713.884 13528 712.81 13542.3 712.61 13599.4 711.81 13679.4 724.095 13738.6 724.005 13797.9 723.916 13832.5 711.377 13897.5 712.072 13962.5 712.766 14049.9 728.268 14128.6 728.172 14187.6 728.101 14244.5 718.713 14306.2 714.058L14325.5 712.901 14325.5 712.893 14337.3 712.19C14347.8 711.742 14358.6 711.49 14369.5 711.5Z" stroke="#172C51" stroke-width="1.33333" stroke-miterlimit="8" fill="#4472C4" fill-rule="evenodd"/><path d="M15772 591.453C15788.6 537.668 15822.8 500.47 15848.3 508.37 15873.8 516.27 15880.9 566.275 15864.3 620.06 15847.6 673.845 15813.4 711.043 15787.9 703.143 15762.5 695.244 15755.3 645.239 15772 591.453Z" fill="#767171" fill-rule="evenodd"/><path d="M15740 714C15703.5 714 15674 704.822 15674 693.5 15674 682.178 15703.5 673 15740 673 15776.5 673 15806 682.178 15806 693.5 15806 704.822 15776.5 714 15740 714Z" fill="#767171" fill-rule="evenodd"/><path d="M15641.2 675.986C15677.6 673.317 15707.7 680.33 15708.5 691.649 15709.4 702.968 15680.6 714.307 15644.2 716.976 15607.9 719.645 15577.8 712.633 15577 701.314 15576.1 689.995 15604.9 678.655 15641.2 675.986Z" fill="#767171" fill-rule="evenodd"/><path d="M15581 704C15581 696.268 15586.6 690 15593.5 690 15600.4 690 15606 696.268 15606 704 15606 711.732 15600.4 718 15593.5 718 15586.6 718 15581 711.732 15581 704Z" fill="#767171" fill-rule="evenodd"/><path d="M15807.6 584.748C15805.1 583.29 15804.1 580.015 15805.6 577.433L15831.3 531.985C15832.7 529.403 15836 528.492 15838.6 529.95L15857.3 540.51C15859.9 541.968 15860.8 545.243 15859.3 547.825L15833.6 593.274C15832.2 595.856 15828.9 596.766 15826.3 595.308Z" fill="#767171" fill-rule="evenodd"/><path d="M15792 471.5C15792 443.057 15814.2 420 15841.5 420 15868.8 420 15891 443.057 15891 471.5 15891 499.943 15868.8 523 15841.5 523 15814.2 523 15792 499.943 15792 471.5Z" fill="#767171" fill-rule="evenodd"/><path d="M16431.8 682.27C16449.3 732.474 16158.5 775.067 15782.2 777.403 15405.9 779.739 15086.7 740.934 15069.2 690.73 15068.3 688.144 15068.3 685.554 15069 682.967Z" stroke="#000000" stroke-width="3.33333" stroke-miterlimit="8" fill="#FFFFFF" fill-rule="evenodd"/><path d="M15771.2 589.492 15428.1 829.68 15422.4 821.509 15765.4 581.322Z" stroke="#000000" stroke-width="1.33333" stroke-miterlimit="8" fill-rule="evenodd"/><path d="M15753.1 581.173C15752.5 578.256 15754.5 575.46 15757.4 574.929L15815.8 564.286C15818.8 563.755 15821.6 565.689 15822.1 568.607L15825.9 589.733C15826.5 592.651 15824.5 595.446 15821.6 595.977L15763.2 606.62C15760.3 607.151 15757.5 605.217 15756.9 602.3Z" fill="#767171" fill-rule="evenodd"/><path d="M15794.5 711.5 15794.5 711.519 15818.4 712.266C15869.3 715.685 15880.1 729.417 15924.2 730.111 15974.6 730.904 16030.2 716.476 16096.3 716.258 16162.4 716.041 16259 729.414 16320.8 728.806 16382.6 728.197 16410.1 713.41 16467.3 712.61 16474.4 712.51 16481.9 712.614 16489.7 712.873L16500.5 713.409 16500.5 945.5 15750.5 945.5 15000.5 945.5 15000.5 713.409 15013.7 714.065C15063.1 717.179 15119.2 724.073 15163.6 724.005 15222.9 723.916 15257.5 711.377 15322.5 712.072 15387.5 712.766 15474.9 728.268 15553.6 728.172 15612.6 728.101 15669.5 718.713 15731.2 714.058L15750.5 712.901 15750.5 712.893 15762.3 712.19C15772.8 711.742 15783.6 711.49 15794.5 711.5Z" stroke="#172C51" stroke-width="1.33333" stroke-miterlimit="8" fill="#4472C4" fill-rule="evenodd"/><path d="M17275.9 593.705C17295.4 540.879 17331.5 505.552 17356.5 514.799 17381.6 524.047 17386.1 574.366 17366.5 627.192 17347 680.017 17310.9 715.344 17285.9 706.097 17260.8 696.85 17256.4 646.53 17275.9 593.705Z" fill="#767171" fill-rule="evenodd"/><path d="M17240 714C17203.5 714 17174 704.822 17174 693.5 17174 682.178 17203.5 673 17240 673 17276.5 673 17306 682.178 17306 693.5 17306 704.822 17276.5 714 17240 714Z" fill="#767171" fill-rule="evenodd"/><path d="M17141.2 675.963C17177.5 673.294 17207.6 680.307 17208.5 691.627 17209.3 702.947 17180.5 714.288 17144.2 716.957 17107.8 719.626 17077.7 712.613 17076.9 701.293 17076 689.973 17104.8 678.632 17141.2 675.963Z" fill="#767171" fill-rule="evenodd"/><path d="M17081 704C17081 696.268 17086.6 690 17093.5 690 17100.4 690 17106 696.268 17106 704 17106 711.732 17100.4 718 17093.5 718 17086.6 718 17081 711.732 17081 704Z" fill="#767171" fill-rule="evenodd"/><path d="M17307.6 584.717C17305 583.259 17304.1 579.984 17305.5 577.402L17331.2 531.949C17332.7 529.367 17335.9 528.456 17338.5 529.914L17357.2 540.475C17359.8 541.934 17360.7 545.209 17359.3 547.791L17333.6 593.244C17332.1 595.826 17328.9 596.737 17326.3 595.278Z" fill="#767171" fill-rule="evenodd"/><path d="M17300 473C17300 444.833 17322.2 422 17349.5 422 17376.8 422 17399 444.833 17399 473 17399 501.167 17376.8 524 17349.5 524 17322.2 524 17300 501.167 17300 473Z" fill="#767171" fill-rule="evenodd"/><path d="M17931.8 682.27C17949.3 732.474 17658.5 775.067 17282.2 777.403 16905.9 779.739 16586.7 740.934 16569.2 690.73 16568.3 688.144 16568.3 685.554 16569 682.967Z" stroke="#000000" stroke-width="3.33333" stroke-miterlimit="8" fill="#FFFFFF" fill-rule="evenodd"/><path d="M17283.9 615.774 17012.9 693.471 17010.2 683.882 17281.1 606.186Z" stroke="#000000" stroke-width="1.33333" stroke-miterlimit="8" fill-rule="evenodd"/><path d="M17260.3 608.067C17258.7 605.609 17259.3 602.272 17261.8 600.613L17311 567.39C17313.5 565.731 17316.8 566.38 17318.5 568.838L17330.5 586.642C17332.1 589.1 17331.5 592.437 17329 594.096L17279.8 627.319C17277.3 628.978 17274 628.329 17272.3 625.871Z" fill="#767171" fill-rule="evenodd"/><path d="M0.796085 62.3306C0.796085 57.584-2.72394 32.8805 5.0406 29.3186 12.9837 13.2696 11.8813 3.912 15.0819 0.731401 18.2824-2.44919 24.2436 5.48878 24.2436 10.2354 24.247 34.3289 25.4473 57.0191 25.7465 71.7369 26.0457 86.4548 26.0316 91.0495 26.0387 98.5424 26.0457 106.035 26.8767 110.318 25.789 116.695 21.9946 122.084 11.8548 137.997 7.93154 129.745 3.7245 123.71 1.27785 79.0683 0.796085 62.3306Z" stroke="#000000" stroke-width="1.33333" stroke-miterlimit="8" fill="#FFFFFF" fill-rule="evenodd" transform="matrix(-0.23609 -0.971731 -0.971731 0.23609 17041.7 699.924)"/><path d="M17219.5 711.5 17219.5 711.519 17243.4 712.266C17294.3 715.685 17305.1 729.417 17349.2 730.111 17399.6 730.904 17455.2 716.476 17521.3 716.258 17587.4 716.041 17684 729.414 17745.8 728.806 17807.6 728.197 17835.1 713.41 17892.3 712.61 17920.8 712.21 17955.1 715.081 17989.7 718.041L18000.5 718.907 18000.5 945.5 17175.5 945.5 16500.5 945.5 16500.5 718.907 16541 722.15C16557.7 723.277 16573.8 724.028 16588.6 724.005 16647.9 723.916 16682.5 711.377 16747.5 712.072 16812.5 712.766 16899.9 728.268 16978.6 728.172 17037.6 728.101 17094.5 718.713 17156.2 714.058L17175.5 712.901 17175.5 712.893 17187.3 712.19C17197.8 711.742 17208.6 711.49 17219.5 711.5Z" stroke="#172C51" stroke-width="1.33333" stroke-miterlimit="8" fill="#4472C4" fill-rule="evenodd"/><path d="M18775.9 593.704C18795.4 540.879 18831.5 505.552 18856.5 514.799 18881.6 524.046 18886.1 574.366 18866.5 627.191 18847 680.016 18810.9 715.344 18785.9 706.096 18760.8 696.849 18756.4 646.529 18775.9 593.704Z" fill="#767171" fill-rule="evenodd"/><path d="M18740 714C18703.5 714 18674 704.822 18674 693.5 18674 682.178 18703.5 673 18740 673 18776.5 673 18806 682.178 18806 693.5 18806 704.822 18776.5 714 18740 714Z" fill="#767171" fill-rule="evenodd"/><path d="M18641.2 675.963C18677.5 673.294 18707.6 680.307 18708.5 691.627 18709.3 702.947 18680.5 714.287 18644.2 716.956 18607.8 719.626 18577.7 712.613 18576.9 701.292 18576 689.972 18604.8 678.632 18641.2 675.963Z" fill="#767171" fill-rule="evenodd"/><path d="M18581 704C18581 696.268 18586.6 690 18593.5 690 18600.4 690 18606 696.268 18606 704 18606 711.732 18600.4 718 18593.5 718 18586.6 718 18581 711.732 18581 704Z" fill="#767171" fill-rule="evenodd"/><path d="M18799 471.5C18799 443.057 18821.2 420 18848.5 420 18875.8 420 18898 443.057 18898 471.5 18898 499.943 18875.8 523 18848.5 523 18821.2 523 18799 499.943 18799 471.5Z" fill="#767171" fill-rule="evenodd"/><path d="M19431.8 682.27C19449.3 732.474 19158.5 775.067 18782.2 777.403 18405.9 779.739 18086.7 740.934 18069.2 690.73 18068.3 688.144 18068.3 685.554 18069 682.967Z" stroke="#000000" stroke-width="3.33333" stroke-miterlimit="8" fill="#FFFFFF" fill-rule="evenodd"/><path d="M18746.8 615.663 18596.1 692.445 18591.5 683.557 18742.2 606.775Z" stroke="#000000" stroke-width="1.33333" stroke-miterlimit="8" fill-rule="evenodd"/><path d="M18560.4 685.881C18568.1 682.628 18575.8 680.539 18584.5 679.533 18593.1 678.528 18608.5 672.478 18612.1 679.849 18613.6 682.902 18612.4 686.544 18609.4 687.984L18555 714.54C18549.9 716.385 18547.5 714.432 18544.7 711.851 18541.9 709.269 18541.3 705.75 18538.1 699.051 18536.6 695.998 18552.7 689.134 18560.4 685.881Z" stroke="#000000" stroke-width="1.33333" stroke-miterlimit="8" fill="#FFFFFF" fill-rule="evenodd"/><path d="M18722.8 608.803C18721.2 606.314 18721.9 602.99 18724.4 601.378L18837 528.413C18839.5 526.801 18842.8 527.512 18844.4 530.001L18856.1 548.028C18857.7 550.517 18857 553.841 18854.5 555.453L18741.9 628.418C18739.4 630.029 18736.1 629.318 18734.4 626.829Z" fill="#767171" fill-rule="evenodd"/><path d="M18644.5 711.5 18644.5 711.519 18668.4 712.266C18719.3 715.685 18730.1 729.417 18774.2 730.111 18824.6 730.904 18880.2 716.476 18946.3 716.258 19012.4 716.041 19109 729.414 19170.8 728.806 19232.6 728.197 19260.1 713.41 19317.3 712.61 19367.3 711.91 19434.8 721.228 19490.6 723.509L19500.5 723.723 19500.5 945.5 18600.5 945.5 18000.5 945.5 18000.5 723.723 18013.6 724.005C18072.9 723.916 18107.5 711.377 18172.5 712.072 18237.5 712.766 18324.9 728.268 18403.6 728.172 18462.6 728.101 18519.5 718.713 18581.2 714.058L18600.5 712.901 18600.5 712.893 18612.3 712.19C18622.8 711.742 18633.6 711.49 18644.5 711.5Z" stroke="#172C51" stroke-width="1.33333" stroke-miterlimit="8" fill="#4472C4" fill-rule="evenodd"/><path d="M20258.9 598.92C20268.6 543.451 20297.8 502.216 20324.1 506.82 20350.4 511.424 20363.8 560.124 20354.1 615.593 20344.4 671.063 20315.2 712.297 20288.9 707.693 20262.6 703.089 20249.2 654.39 20258.9 598.92Z" fill="#767171" fill-rule="evenodd"/><path d="M20241 714C20204.5 714 20175 704.822 20175 693.5 20175 682.178 20204.5 673 20241 673 20277.5 673 20307 682.178 20307 693.5 20307 704.822 20277.5 714 20241 714Z" fill="#767171" fill-rule="evenodd"/><path d="M20141.4 675.755C20177.7 673.086 20207.8 680.099 20208.7 691.419 20209.5 702.739 20180.7 714.079 20144.4 716.748 20108 719.417 20077.9 712.404 20077.1 701.084 20076.2 689.764 20105 678.424 20141.4 675.755Z" fill="#767171" fill-rule="evenodd"/><path d="M20081 703.5C20081 696.044 20086.6 690 20093.5 690 20100.4 690 20106 696.044 20106 703.5 20106 710.956 20100.4 717 20093.5 717 20086.6 717 20081 710.956 20081 703.5Z" fill="#767171" fill-rule="evenodd"/><path d="M20264 463.5C20264 435.057 20286.2 412 20313.5 412 20340.8 412 20363 435.057 20363 463.5 20363 491.943 20340.8 515 20313.5 515 20286.2 515 20264 491.943 20264 463.5Z" fill="#767171" fill-rule="evenodd"/><path d="M20931.8 682.27C20949.3 732.474 20658.5 775.067 20282.2 777.403 19905.9 779.739 19586.7 740.934 19569.2 690.73 19568.3 688.144 19568.3 685.554 19569 682.967Z" stroke="#000000" stroke-width="3.33333" stroke-miterlimit="8" fill="#FFFFFF" fill-rule="evenodd"/><path d="M20226.7 613.894 20164.7 682.722 20157.3 676.048 20219.2 607.219Z" stroke="#000000" stroke-width="1.33333" stroke-miterlimit="8" fill-rule="evenodd"/><path d="M20197.3 610.031C20195.6 607.597 20196.2 604.251 20198.7 602.557L20308.9 525.908C20311.3 524.215 20314.7 524.815 20316.3 527.25L20328.6 544.88C20330.3 547.314 20329.7 550.661 20327.3 552.354L20217.1 629.003C20214.6 630.697 20211.3 630.096 20209.6 627.661Z" fill="#767171" fill-rule="evenodd"/><path d="M20130 685.81C20134.5 681.513 20139.9 677.921 20146.6 675.397 20153.3 672.874 20162.9 664.317 20170.2 670.669 20173.2 673.3 20174.3 676.977 20172.6 678.883L20141.9 714.031C20138.7 716.714 20135.4 715.497 20131.7 713.355 20127.9 711.213 20120.7 703.111 20119.3 701.181 20117.1 698.035 20125.4 690.107 20130 685.81Z" stroke="#000000" stroke-width="1.33333" stroke-miterlimit="8" fill="#FFFFFF" fill-rule="evenodd"/><path d="M20069.5 711.5 20069.5 711.519 20093.4 712.266C20144.3 715.685 20155.1 729.417 20199.2 730.111 20249.6 730.904 20305.2 716.476 20371.3 716.258 20437.4 716.041 20534 729.414 20595.8 728.806 20657.6 728.197 20685.1 713.41 20742.3 712.61 20799.4 711.81 20879.4 724.095 20938.6 724.005 20953.4 723.983 20966.7 723.183 20979.3 722.005L21000.5 719.539 21000.5 945.5 20025.5 945.5 19500.5 945.5 19500.5 719.539 19515.9 717.745C19540.1 714.686 19565 711.725 19597.5 712.072 19662.5 712.766 19749.9 728.268 19828.6 728.172 19887.6 728.101 19944.5 718.713 20006.2 714.058L20025.5 712.901 20025.5 712.893 20037.3 712.19C20047.8 711.742 20058.6 711.49 20069.5 711.5Z" stroke="#172C51" stroke-width="1.33333" stroke-miterlimit="8" fill="#4472C4" fill-rule="evenodd"/><path d="M21754 601.613C21759.7 545.591 21785.9 502.376 21812.4 505.091 21839 507.805 21855.8 555.42 21850.1 611.442 21844.4 667.464 21818.2 710.679 21791.7 707.964 21765.1 705.25 21748.2 657.635 21754 601.613Z" fill="#767171" fill-rule="evenodd"/><path d="M21740 714C21703.5 714 21674 704.822 21674 693.5 21674 682.178 21703.5 673 21740 673 21776.5 673 21806 682.178 21806 693.5 21806 704.822 21776.5 714 21740 714Z" fill="#767171" fill-rule="evenodd"/><path d="M21641.2 675.878C21677.5 673.209 21707.6 680.222 21708.5 691.542 21709.3 702.862 21680.5 714.203 21644.2 716.872 21607.8 719.541 21577.7 712.528 21576.9 701.208 21576 689.888 21604.8 678.547 21641.2 675.878Z" fill="#767171" fill-rule="evenodd"/><path d="M21581 703.5C21581 696.044 21586.6 690 21593.5 690 21600.4 690 21606 696.044 21606 703.5 21606 710.956 21600.4 717 21593.5 717 21586.6 717 21581 710.956 21581 703.5Z" fill="#767171" fill-rule="evenodd"/><path d="M21746 465.5C21746 437.057 21768.4 414 21796 414 21823.6 414 21846 437.057 21846 465.5 21846 493.943 21823.6 517 21796 517 21768.4 517 21746 493.943 21746 465.5Z" fill="#767171" fill-rule="evenodd"/><path d="M22431.8 682.27C22449.3 732.474 22158.5 775.067 21782.2 777.403 21405.9 779.739 21086.7 740.934 21069.2 690.73 21068.3 688.144 21068.3 685.554 21069 682.967Z" stroke="#000000" stroke-width="3.33333" stroke-miterlimit="8" fill="#FFFFFF" fill-rule="evenodd"/><path d="M21700 608.036 21732.8 681.61 21723.7 685.667 21690.9 612.093Z" stroke="#000000" stroke-width="1.33333" stroke-miterlimit="8" fill="#0D0D0D" fill-rule="evenodd"/><path d="M21682 608.174C21680.5 605.625 21681.3 602.33 21683.9 600.815L21799.3 532.241C21801.8 530.726 21805.1 531.564 21806.6 534.113L21817.6 552.575C21819.1 555.125 21818.3 558.419 21815.7 559.934L21700.3 628.509C21697.8 630.024 21694.5 629.185 21693 626.636Z" fill="#767171" fill-rule="evenodd"/><path d="M21713.8 695.095C21713.2 690.555 21718.4 687.84 21719.8 683.681 21721.1 679.522 21715.5 673.725 21721.9 670.142 21724.5 668.658 21727.4 668.876 21728.4 670.628L21746.7 702.955C21747.9 706.093 21747.6 708.99 21743.8 710.318 21739.9 711.647 21728.6 713.461 21723.6 710.924 21718.6 708.387 21714.4 699.636 21713.8 695.095Z" stroke="#000000" stroke-width="1.33333" stroke-miterlimit="8" fill="#FFFFFF" fill-rule="evenodd"/><path d="M21494.5 711.5 21494.5 711.519 21518.4 712.266C21569.3 715.685 21580.1 729.417 21624.2 730.111 21674.6 730.904 21730.2 716.476 21796.3 716.258 21862.4 716.041 21959 729.414 22020.8 728.806 22082.6 728.197 22110.1 713.41 22167.3 712.61 22224.4 711.81 22304.4 724.095 22363.6 724.005 22415.5 723.927 22448.5 714.317 22499.5 712.382L22500.5 712.368 22500.5 945.5 21450.5 945.5 21000.5 945.5 21000.5 712.368 21022.5 712.072C21087.5 712.766 21174.9 728.268 21253.6 728.172 21312.6 728.101 21369.5 718.713 21431.2 714.058L21450.5 712.901 21450.5 712.893 21462.3 712.19C21472.8 711.742 21483.6 711.49 21494.5 711.5Z" stroke="#172C51" stroke-width="1.33333" stroke-miterlimit="8" fill="#4472C4" fill-rule="evenodd"/><path d="M23231.8 610.681C23226.9 554.582 23244.5 507.218 23271.1 504.892 23297.6 502.566 23323.2 546.159 23328.1 602.258 23333 658.358 23315.4 705.721 23288.8 708.047 23262.2 710.373 23236.7 666.781 23231.8 610.681Z" fill="#767171" fill-rule="evenodd"/><path d="M23234.1 704.728C23198.4 697.465 23171.3 682.561 23173.6 671.438 23175.8 660.315 23206.6 657.186 23242.3 664.449 23278 671.712 23305.1 686.617 23302.9 697.74 23300.6 708.862 23269.8 711.991 23234.1 704.728Z" fill="#767171" fill-rule="evenodd"/><path d="M23134.5 668.137C23169.3 657.45 23200.3 657.583 23203.6 668.434 23206.9 679.286 23181.4 696.746 23146.6 707.433 23111.7 718.12 23080.8 717.987 23077.5 707.135 23074.1 696.284 23099.7 678.824 23134.5 668.137Z" fill="#767171" fill-rule="evenodd"/><path d="M23081 703.5C23081 696.044 23086.6 690 23093.5 690 23100.4 690 23106 696.044 23106 703.5 23106 710.956 23100.4 717 23093.5 717 23086.6 717 23081 710.956 23081 703.5Z" fill="#767171" fill-rule="evenodd"/><path d="M23208 463.5C23208 435.057 23230.2 412 23257.5 412 23284.8 412 23307 435.057 23307 463.5 23307 491.943 23284.8 515 23257.5 515 23230.2 515 23208 491.943 23208 463.5Z" fill="#767171" fill-rule="evenodd"/><path d="M23931.8 682.27C23949.3 732.474 23658.5 775.067 23282.2 777.403 22905.9 779.739 22586.7 740.934 22569.2 690.73 22568.3 688.144 22568.3 685.554 22569 682.967Z" stroke="#000000" stroke-width="3.33333" stroke-miterlimit="8" fill="#FFFFFF" fill-rule="evenodd"/><path d="M23178.5 605.468 23278.2 680.594 23272.2 688.56 23172.5 613.434Z" stroke="#000000" stroke-width="1.33333" stroke-miterlimit="8" fill-rule="evenodd"/><path d="M23263.2 696.257C23259.5 692.694 23261.9 690.171 23260.4 685.415 23258.9 680.66 23249.3 675.792 23254.2 667.725 23256.3 664.383 23259.7 662.744 23261.8 664.063L23301.6 688.403C23304.8 691.148 23304.6 695.698 23301.4 698.763 23298.2 701.828 23288.9 707.211 23282.6 706.794 23276.2 706.376 23266.9 699.82 23263.2 696.257Z" stroke="#000000" stroke-width="1.33333" stroke-miterlimit="8" fill="#FFFFFF" fill-rule="evenodd"/><path d="M23155.3 611.217C23153.5 608.872 23153.9 605.499 23156.2 603.685L23262.4 521.547C23264.7 519.732 23268.1 520.163 23269.9 522.508L23283.1 539.494C23284.9 541.839 23284.5 545.212 23282.1 547.026L23176 629.164C23173.6 630.979 23170.2 630.548 23168.4 628.203Z" fill="#767171" fill-rule="evenodd"/><path d="M22919.5 711.5 22919.5 711.519 22943.4 712.266C22994.3 715.685 23005.1 729.417 23049.2 730.111 23099.6 730.904 23155.2 716.476 23221.3 716.258 23287.4 716.041 23384 729.414 23445.8 728.806 23507.6 728.197 23535.1 713.41 23592.3 712.61 23649.4 711.81 23729.4 724.095 23788.6 724.005 23847.9 723.916 23882.5 711.377 23947.5 712.072 23963.8 712.245 23981.4 713.345 24000 714.894L24000.5 714.944 24000.5 945.5 22875.5 945.5 22500.5 945.5 22500.5 714.944 22557.9 720.418C22597.7 724.368 22639.2 728.22 22678.6 728.172 22737.6 728.101 22794.5 718.713 22856.2 714.058L22875.5 712.901 22875.5 712.893 22887.3 712.19C22897.8 711.742 22908.6 711.49 22919.5 711.5Z" stroke="#172C51" stroke-width="1.33333" stroke-miterlimit="8" fill="#4472C4" fill-rule="evenodd"/><path d="M24708.7 614.201C24700.8 558.435 24715.9 510.217 24742.3 506.502 24768.7 502.788 24796.5 544.984 24804.4 600.75 24812.2 656.516 24797.1 704.735 24770.7 708.449 24744.3 712.163 24716.5 669.967 24708.7 614.201Z" fill="#767171" fill-rule="evenodd"/><path d="M24715.1 689.735C24683.6 671.455 24662.7 648.677 24668.4 638.859 24674.1 629.04 24704.2 635.9 24735.7 654.179 24767.3 672.459 24788.2 695.237 24782.5 705.056 24776.8 714.874 24746.6 708.015 24715.1 689.735Z" fill="#767171" fill-rule="evenodd"/><path d="M24624.3 656.335C24653.9 635.068 24683.2 625.299 24689.8 634.515 24696.5 643.731 24677.8 668.442 24648.3 689.709 24618.7 710.976 24589.3 720.745 24582.7 711.529 24576.1 702.313 24594.7 677.602 24624.3 656.335Z" fill="#767171" fill-rule="evenodd"/><path d="M24581 704C24581 696.268 24586.6 690 24593.5 690 24600.4 690 24606 696.268 24606 704 24606 711.732 24600.4 718 24593.5 718 24586.6 718 24581 711.732 24581 704Z" fill="#767171" fill-rule="evenodd"/><path d="M24678 465.5C24678 437.057 24700.2 414 24727.5 414 24754.8 414 24777 437.057 24777 465.5 24777 493.943 24754.8 517 24727.5 517 24700.2 517 24678 493.943 24678 465.5Z" fill="#767171" fill-rule="evenodd"/><path d="M25431.8 682.27C25449.3 732.474 25158.5 775.067 24782.2 777.403 24405.9 779.739 24086.7 740.934 24069.2 690.73 24068.3 688.144 24068.3 685.554 24069 682.967Z" stroke="#000000" stroke-width="3.33333" stroke-miterlimit="8" fill="#FFFFFF" fill-rule="evenodd"/><path d="M24642.6 603.486 24845.6 681.413 24842 690.726 24639 612.799Z" stroke="#000000" stroke-width="1.33333" stroke-miterlimit="8" fill-rule="evenodd"/><path d="M24625 607.393C24623.3 604.961 24623.9 601.614 24626.3 599.916L24736.4 523.065C24738.8 521.368 24742.1 521.962 24743.8 524.394L24756.1 542.002C24757.8 544.433 24757.2 547.78 24754.8 549.478L24644.8 626.329C24642.3 628.026 24639 627.432 24637.3 625Z" fill="#767171" fill-rule="evenodd"/><path d="M24836.9 700.796C24832.7 698.33 24835.1 696.709 24831.9 692.334 24828.6 687.959 24815.5 680.63 24817.4 674.547 24818.2 672.027 24821.6 670.842 24825 671.899 24844.8 678.011 24864.6 684.122 24884.4 690.234 24887.8 691.291 24888.4 697.014 24886 698.696 24880.8 702.421 24878.5 705.957 24873.6 707.363 24868.8 708.769 24863.8 708.697 24856.8 707.13 24849.7 705.351 24841 703.262 24836.9 700.796Z" stroke="#000000" stroke-width="1.33333" stroke-miterlimit="8" fill="#FFFFFF" fill-rule="evenodd"/><path d="M24344.5 711.5 24344.5 711.519 24368.4 712.266C24419.3 715.685 24430.1 729.417 24474.2 730.111 24524.6 730.904 24580.2 716.476 24646.3 716.258 24712.4 716.041 24809 729.414 24870.8 728.806 24932.6 728.197 24960.1 713.41 25017.3 712.61 25074.4 711.81 25154.4 724.095 25213.6 724.005 25272.9 723.916 25307.5 711.377 25372.5 712.072 25405 712.419 25443.1 716.468 25482.9 720.418L25500.5 721.982 25500.5 945.5 24300.5 945.5 24000.5 945.5 24000.5 721.982 24043.4 725.794C24063.7 727.245 24083.9 728.196 24103.6 728.172 24162.6 728.101 24219.5 718.713 24281.2 714.058L24300.5 712.901 24300.5 712.893 24312.3 712.19C24322.8 711.742 24333.6 711.49 24344.5 711.5Z" stroke="#172C51" stroke-width="1.33333" stroke-miterlimit="8" fill="#4472C4" fill-rule="evenodd"/><path d="M26185.4 618.479C26176.3 562.904 26190.3 514.358 26216.6 510.048 26242.9 505.738 26271.7 547.296 26280.8 602.871 26289.8 658.446 26275.9 706.992 26249.5 711.302 26223.2 715.612 26194.5 674.054 26185.4 618.479Z" fill="#767171" fill-rule="evenodd"/><path d="M26187.6 677.912C26161.6 652.43 26146.9 625.196 26154.8 617.084 26162.8 608.972 26190.3 623.053 26216.4 648.535 26242.4 674.018 26257.1 701.251 26249.1 709.363 26241.2 717.476 26213.7 703.394 26187.6 677.912Z" fill="#767171" fill-rule="evenodd"/><path d="M26104.8 656.423C26126.3 627.01 26151.1 608.596 26160.3 615.294 26169.4 621.992 26159.4 651.265 26137.9 680.678 26116.4 710.091 26091.6 728.505 26082.4 721.807 26073.3 715.109 26083.3 685.836 26104.8 656.423Z" fill="#767171" fill-rule="evenodd"/><path d="M26081 703.5C26081 696.044 26086.6 690 26093.5 690 26100.4 690 26106 696.044 26106 703.5 26106 710.956 26100.4 717 26093.5 717 26086.6 717 26081 710.956 26081 703.5Z" fill="#767171" fill-rule="evenodd"/><path d="M26151 467.5C26151 439.057 26173.2 416 26200.5 416 26227.8 416 26250 439.057 26250 467.5 26250 495.943 26227.8 519 26200.5 519 26173.2 519 26151 495.943 26151 467.5Z" fill="#767171" fill-rule="evenodd"/><path d="M26931.8 682.27C26949.3 732.474 26658.5 775.067 26282.2 777.403 25905.9 779.739 25586.7 740.934 25569.2 690.73 25568.3 688.144 25568.3 685.554 25569 682.967Z" stroke="#000000" stroke-width="3.33333" stroke-miterlimit="8" fill="#FFFFFF" fill-rule="evenodd"/><path d="M26119.8 604.633 26424.5 680.619 26422.1 690.298 26117.3 614.312Z" stroke="#000000" stroke-width="1.33333" stroke-miterlimit="8" fill-rule="evenodd"/><path d="M26096.6 596.642C26095.3 593.983 26096.4 590.763 26099 589.448L26219.4 529.952C26222 528.637 26225.2 529.727 26226.6 532.385L26236.1 551.636C26237.4 554.294 26236.3 557.515 26233.7 558.829L26113.3 618.326C26110.7 619.64 26107.4 618.551 26106.1 615.893Z" fill="#767171" fill-rule="evenodd"/><path d="M26428.5 704.822C26423.1 702.494 26425.8 700.759 26421.1 696.465 26416.5 692.171 26399.4 685.285 26400.7 679.057 26401.3 676.478 26405.2 675.144 26409.5 676.078 26434.6 681.466 26459.7 686.854 26484.7 692.242 26489 693.176 26490.6 698.94 26488 700.734 26482.3 704.708 26480 708.377 26474.3 709.993 26468.6 711.609 26462.5 711.736 26453.8 710.431 26444.8 708.916 26434 707.15 26428.5 704.822Z" stroke="#000000" stroke-width="1.33333" stroke-miterlimit="8" fill="#FFFFFF" fill-rule="evenodd"/><path d="M25769.5 711.5 25769.5 711.519 25793.4 712.266C25844.3 715.685 25855.1 729.417 25899.2 730.111 25949.6 730.904 26005.2 716.476 26071.3 716.258 26137.4 716.041 26234 729.414 26295.8 728.806 26357.6 728.197 26385.1 713.41 26442.3 712.61 26499.4 711.81 26579.4 724.095 26638.6 724.005 26697.9 723.916 26732.5 711.377 26797.5 712.072 26854.4 712.68 26928.4 724.624 26998.7 727.536L27000.5 727.574 27000.5 945.5 25725.5 945.5 25500.5 945.5 25500.5 727.574 25528.6 728.172C25587.6 728.101 25644.5 718.713 25706.2 714.058L25725.5 712.901 25725.5 712.893 25737.3 712.19C25747.8 711.742 25758.6 711.49 25769.5 711.5Z" stroke="#172C51" stroke-width="1.33333" stroke-miterlimit="8" fill="#4472C4" fill-rule="evenodd"/><path d="M27642.9 616.558C27633.8 560.983 27647.8 512.437 27674.1 508.127 27700.4 503.817 27729.2 545.375 27738.3 600.949 27747.4 656.524 27733.4 705.07 27707 709.38 27680.7 713.691 27652 672.132 27642.9 616.558Z" fill="#767171" fill-rule="evenodd"/><path d="M27640.6 666.755C27619.6 636.983 27610.1 607.544 27619.4 601.002 27628.6 594.46 27653.2 613.292 27674.2 643.064 27695.2 672.837 27704.7 702.275 27695.4 708.817 27686.1 715.359 27661.6 696.527 27640.6 666.755Z" fill="#767171" fill-rule="evenodd"/><path d="M27586.6 659.782C27594.9 624.322 27610.7 597.687 27621.7 600.292 27632.8 602.896 27634.9 633.754 27626.6 669.214 27618.2 704.674 27602.5 731.309 27591.4 728.704 27580.4 726.099 27578.2 695.242 27586.6 659.782Z" fill="#767171" fill-rule="evenodd"/><path d="M27581 704C27581 696.268 27586.6 690 27593.5 690 27600.4 690 27606 696.268 27606 704 27606 711.732 27600.4 718 27593.5 718 27586.6 718 27581 711.732 27581 704Z" fill="#767171" fill-rule="evenodd"/><path d="M27611 473.5C27611 445.057 27633.2 422 27660.5 422 27687.8 422 27710 445.057 27710 473.5 27710 501.943 27687.8 525 27660.5 525 27633.2 525 27611 501.943 27611 473.5Z" fill="#767171" fill-rule="evenodd"/><path d="M28431.8 682.27C28449.3 732.474 28158.5 775.067 27782.2 777.403 27405.9 779.739 27086.7 740.934 27069.2 690.73 27068.3 688.144 27068.3 685.554 27069 682.967Z" stroke="#000000" stroke-width="3.33333" stroke-miterlimit="8" fill="#FFFFFF" fill-rule="evenodd"/><path d="M27560.5 591.494 27960.7 683.89 27958.5 693.609 27558.3 601.213Z" stroke="#000000" stroke-width="1.33333" stroke-miterlimit="8" fill-rule="evenodd"/><path d="M27544.5 585.782C27543.5 582.995 27544.9 579.914 27547.7 578.9L27673.8 532.991C27676.6 531.977 27679.7 533.414 27680.7 536.2L27688.1 556.381C27689.1 559.168 27687.6 562.249 27684.9 563.263L27558.7 609.172C27555.9 610.186 27552.9 608.749 27551.8 605.963Z" fill="#767171" fill-rule="evenodd"/><path d="M27976.7 734.83C27972.1 734.084 27964.7 732.035 27963.7 715.429 27963.3 695.073 27943.7 697.378 27945.5 686.334 27946.2 681.76 27950.5 678.656 27955.1 679.403L28039.5 693.168C28044.1 693.915 28047.2 698.228 28046.4 702.803L28037 735.448C28036.2 740.023 28024.4 742.005 28019.8 741.259L27976.7 734.83Z" stroke="#000000" stroke-width="1.33333" stroke-miterlimit="8" fill="#FFFFFF" fill-rule="evenodd"/><path d="M27194.5 711.5 27194.5 711.519 27218.4 712.266C27269.3 715.685 27280.1 729.417 27324.2 730.111 27374.6 730.904 27430.2 716.476 27496.3 716.258 27562.4 716.041 27659 729.414 27720.8 728.806 27782.6 728.197 27810.1 713.41 27867.3 712.61 27924.4 711.81 28004.4 724.095 28063.6 724.005 28122.9 723.916 28157.5 711.377 28222.5 712.072 28287.5 712.766 28374.9 728.268 28453.6 728.172 28468.3 728.154 28482.9 727.554 28497.5 726.591L28500.5 726.338 28500.5 945.5 27150.5 945.5 27000.5 945.5 27000.5 726.338 27041.4 722.834C27070.7 719.896 27100.3 716.385 27131.2 714.058L27150.5 712.901 27150.5 712.893 27162.3 712.19C27172.8 711.742 27183.6 711.49 27194.5 711.5Z" stroke="#172C51" stroke-width="1.33333" stroke-miterlimit="8" fill="#4472C4" fill-rule="evenodd"/><path d="M29123.6 616.558C29114.5 560.983 29128.5 512.437 29154.8 508.127 29181.1 503.817 29209.9 545.375 29219 600.95 29228 656.525 29214.1 705.071 29187.7 709.381 29161.4 713.691 29132.7 672.133 29123.6 616.558Z" fill="#767171" fill-rule="evenodd"/><path d="M29094 475.5C29094 447.057 29116.2 424 29143.5 424 29170.8 424 29193 447.057 29193 475.5 29193 503.943 29170.8 527 29143.5 527 29116.2 527 29094 503.943 29094 475.5Z" fill="#767171" fill-rule="evenodd"/><path d="M29121.3 666.755C29100.3 636.983 29090.8 607.544 29100 601.002 29109.3 594.46 29133.9 613.292 29154.9 643.065 29175.9 672.837 29185.4 702.276 29176.1 708.818 29166.8 715.359 29142.3 696.528 29121.3 666.755Z" fill="#767171" fill-rule="evenodd"/><path d="M29075 664.5C29075 628.325 29084.2 599 29095.5 599 29106.8 599 29116 628.325 29116 664.5 29116 700.675 29106.8 730 29095.5 730 29084.2 730 29075 700.675 29075 664.5Z" fill="#767171" fill-rule="evenodd"/><path d="M29081 704C29081 696.268 29086.6 690 29093.5 690 29100.4 690 29106 696.268 29106 704 29106 711.732 29100.4 718 29093.5 718 29086.6 718 29081 711.732 29081 704Z" fill="#767171" fill-rule="evenodd"/><path d="M29931.8 682.27C29949.3 732.474 29658.5 775.067 29282.2 777.403 28905.9 779.739 28586.7 740.934 28569.2 690.73 28568.3 688.144 28568.3 685.554 28569 682.967Z" stroke="#000000" stroke-width="3.33333" stroke-miterlimit="8" fill="#FFFFFF" fill-rule="evenodd"/><path d="M29036.7 582.746 29557.9 722.405 29555.3 732.04 29034.1 592.381Z" stroke="#000000" stroke-width="1.33333" stroke-miterlimit="8" fill-rule="evenodd"/><path d="M29022.1 576.499C29021.5 573.611 29023.3 570.725 29026.2 570.052L29156.9 539.612C29159.8 538.94 29162.7 540.736 29163.3 543.624L29168.2 564.541C29168.9 567.429 29167.1 570.315 29164.2 570.988L29033.5 601.428C29030.6 602.101 29027.7 600.304 29027 597.416Z" fill="#767171" fill-rule="evenodd"/><path d="M29525.5 760.655C29521 759.909 29513.5 757.86 29512.5 741.254 29512.1 720.898 29492.5 723.203 29494.3 712.159 29495 707.585 29499.4 704.481 29503.9 705.227L29588.3 718.993C29592.9 719.739 29596 724.053 29595.2 728.627L29585.8 761.273C29585.1 765.848 29573.2 767.83 29568.6 767.084L29525.5 760.655Z" stroke="#000000" stroke-width="1.33333" stroke-miterlimit="8" fill="#FFFFFF" fill-rule="evenodd"/><path d="M28619.5 711.5 28619.5 711.519 28643.4 712.266C28694.3 715.685 28705.1 729.417 28749.2 730.111 28799.6 730.904 28855.2 716.476 28921.3 716.258 28987.4 716.041 29084 729.414 29145.8 728.806 29207.6 728.197 29235.1 713.41 29292.3 712.61 29349.4 711.81 29429.4 724.095 29488.6 724.005 29547.9 723.916 29582.5 711.377 29647.5 712.072 29712.5 712.766 29799.9 728.268 29878.6 728.172 29908.1 728.137 29937.1 725.772 29966.4 722.834L30000.5 719.279 30000.5 945.5 28575.5 945.5 28500.5 945.5 28500.5 719.279 28510.7 718.217C28525.6 716.681 28540.7 715.221 28556.2 714.058L28575.5 712.901 28575.5 712.893 28587.3 712.19C28597.8 711.742 28608.6 711.49 28619.5 711.5Z" stroke="#172C51" stroke-width="1.33333" stroke-miterlimit="8" fill="#4472C4" fill-rule="evenodd"/><rect x="0" y="196" width="30000" height="749" fill="#4472C4" fill-opacity="0"/></g></svg>