<svg width="350" height="641" xmlns="http://www.w3.org/2000/svg" xmlns:xlink="http://www.w3.org/1999/xlink" overflow="hidden"><g transform="translate(-618 -198)"><path d="M728 652.017C728 602.873 734.539 561.649 771 563.034 807.461 564.419 814 602.873 814 652.017 814 701.161 794.748 741 771 741 747.252 741 728 701.161 728 652.017Z" fill="#767171" fill-rule="evenodd"/><path d="M718 521C718 492.281 740.386 469 768 469 795.614 469 818 492.281 818 521 818 549.719 795.614 573 768 573 740.386 573 718 549.719 718 521Z" fill="#767171" fill-rule="evenodd"/><path d="M788.928 574.679C787.932 571.86 789.409 568.768 792.227 567.772L849.727 547.447C852.546 546.451 855.638 547.928 856.634 550.746L863.849 571.156C864.845 573.975 863.368 577.067 860.55 578.063L803.05 598.388C800.232 599.384 797.139 597.907 796.143 595.089Z" fill="#767171" fill-rule="evenodd"/><path d="M673.677 295.122 629.479 837.237 619.457 836.42 663.656 294.305Z" stroke="#000000" stroke-width="1.33333" stroke-miterlimit="8" fill-rule="evenodd"/><path d="M717.461 265.597C717.221 270.263 715.994 277.934 699.468 280.781 679.123 283.476 683.611 302.86 672.347 302.282 667.681 302.043 664.092 298.067 664.331 293.401L668.744 207.333C668.983 202.667 672.96 199.078 677.626 199.317L711.38 205.139C716.046 205.379 719.35 217.038 719.111 221.704L717.461 265.597Z" stroke="#000000" stroke-width="1.33333" stroke-miterlimit="8" fill="#FFFFFF" fill-rule="evenodd"/><path d="M650.382 509.175C652.125 506.747 655.507 506.193 657.935 507.936L767.831 586.862C770.259 588.606 770.814 591.988 769.07 594.416L756.442 611.999C754.698 614.427 751.317 614.981 748.889 613.238L638.993 534.312C636.565 532.568 636.01 529.186 637.754 526.758Z" fill="#767171" fill-rule="evenodd"/><path d="M893.928 489.622 913.768 528.642 874.912 508.482Z" fill="#FFD966" fill-rule="evenodd"/><path d="M903.384 540.565 897.627 512.597 925.957 518.177Z" fill="#FFD966" fill-rule="evenodd"/><path d="M900.92 550.293 900.92 550.293 900.92 550.293ZM877.008 513.971C881.419 509.596 890.451 511.55 897.181 518.336 902.649 523.849 904.915 530.856 903.207 535.636L902.745 536.691 922.061 517.533 921.003 517.986C916.208 519.655 909.221 517.332 903.753 511.818 897.023 505.033 895.143 495.985 899.554 491.61L900.898 490.91 899.458 493.621C898.441 498.329 900.76 504.691 905.807 509.78 910.855 514.87 917.197 517.241 921.914 516.263L924.637 514.845 924.378 515.332 925.164 514.695C928.423 512.563 932.838 512.938 935.687 515.811L935.687 515.811C938.943 519.094 938.921 524.395 935.638 527.651L912.76 550.342C909.887 553.191 905.469 553.53 902.228 551.371L900.92 550.293 899.852 548.975C898.025 546.182 898.039 542.54 899.89 539.762L900.527 538.988 900.036 539.244 901.476 536.533C902.493 531.825 900.174 525.463 895.126 520.374 890.079 515.285 883.736 512.913 879.02 513.891L876.297 515.31Z" fill="#FFD966" fill-rule="evenodd"/><path d="M895.711 448.432C894.078 450.331 892.462 453.821 891.312 458.102L890.967 459.581 891.979 460.494C894.24 462.887 896.097 465.612 897.5 468.56L898.289 470.618 898.93 468.969C899.542 467.196 900.078 465.22 900.496 463.117 902.167 454.705 901.307 447.446 898.575 446.903 897.678 446.725 896.691 447.292 895.711 448.432ZM833.121 510.493C832.483 511.221 832.191 511.942 832.319 512.615 832.839 515.352 840.091 516.272 848.517 514.67 850.624 514.27 852.604 513.749 854.381 513.152L856.025 512.528 854.417 511.924C851.46 510.543 848.722 508.705 846.313 506.462L845.075 505.109 843.578 505.445C839.287 506.559 835.784 508.146 833.871 509.764 833.584 510.007 833.333 510.25 833.121 510.493ZM830.723 506.366C833.284 504.106 837.089 502.11 841.611 500.772L841.628 500.768 840.183 498.566 884.037 454.419 886.652 456.108 886.655 456.097C889.406 447.075 894.766 440.943 899.543 441.891 905.002 442.976 907.63 452.899 905.414 464.055 904.444 468.936 902.708 473.244 900.604 476.456L900.114 477.151 900.288 477.964C900.728 481.248 900.66 484.647 900.033 488.049 897.589 501.31 887.171 511.795 873.923 514.326 870.525 514.975 867.127 515.065 863.84 514.648L862.577 514.387 861.855 514.888C858.626 516.965 854.303 518.666 849.415 519.595 838.241 521.72 828.339 519.009 827.3 513.542 826.845 511.15 828.162 508.626 830.723 506.366Z" fill="#FFD966" fill-rule="evenodd"/><path d="M906.918 576.145 961.488 522.022 966.878 527.456 912.307 581.579Z" stroke="#4D1B1B" stroke-width="0.333333" stroke-miterlimit="8" fill="#843C0C" fill-rule="evenodd"/><path d="M896.205 553.093 938.525 511.12 955.363 528.097 913.043 570.07Z" stroke="#4D1B1B" stroke-width="0.333333" stroke-miterlimit="8" fill="#843C0C" fill-rule="evenodd"/><path d="M842.801 560.482C840.684 558.371 840.68 554.944 842.79 552.828L885.852 509.642C887.963 507.525 891.389 507.52 893.506 509.631L908.836 524.916C910.952 527.027 910.957 530.454 908.847 532.57L865.785 575.756C863.674 577.873 860.247 577.878 858.131 575.767Z" fill="#767171" fill-rule="evenodd"/><path d="M742.5 838C739.463 838 737 835.537 737 832.5L737 697.5C737 694.462 739.463 692 742.5 692L764.5 692C767.538 692 770 694.462 770 697.5L770 832.5C770 835.537 767.538 838 764.5 838Z" fill="#767171" fill-rule="evenodd"/><path d="M780.5 838C777.463 838 775 835.537 775 832.5L775 697.5C775 694.462 777.463 692 780.5 692L802.5 692C805.538 692 808 694.462 808 697.5L808 832.5C808 835.537 805.538 838 802.5 838Z" fill="#767171" fill-rule="evenodd"/><path d="M734.905 729.629C734.264 692.88 742.294 662.94 752.841 662.755 763.389 662.571 772.459 692.213 773.101 728.962 773.742 765.711 765.712 795.651 755.164 795.835 744.617 796.019 735.547 766.378 734.905 729.629Z" fill="#767171" fill-rule="evenodd"/><path d="M772.23 728.962C772.872 692.213 781.942 662.571 792.49 662.755 803.037 662.94 811.067 692.88 810.426 729.629 809.784 766.378 800.714 796.019 790.167 795.835 779.619 795.651 771.589 765.711 772.23 728.962Z" fill="#767171" fill-rule="evenodd"/></g></svg>